G04 start of page 13 for group -4079 idx -4079 *
G04 Title: (unknown), topsilk *
G04 Creator: pcb 20110918 *
G04 CreationDate: Wed 25 May 2016 01:20:19 PM GMT UTC *
G04 For: rz *
G04 Format: Gerber/RS-274X *
G04 PCB-Dimensions: 1692913 236220 *
G04 PCB-Coordinate-Origin: lower left *
%MOIN*%
%FSLAX25Y25*%
%LNTOPSILK*%
%ADD59C,0.0200*%
G54D59*X630400Y225820D02*Y29020D01*
X827200D01*
Y225820D01*
X630400D01*
X848200Y124420D02*X1001700D01*
Y203120D02*Y124420D01*
X848200Y203120D02*X1001700D01*
X848200D02*Y124420D01*
X1020400Y225820D02*Y29020D01*
X1217200D01*
Y225820D01*
X1020400D01*
X1238200Y124420D02*X1391700D01*
Y203120D02*Y124420D01*
X1238200Y203120D02*X1391700D01*
X1238200D02*Y124420D01*
X68200D02*X221700D01*
Y203120D02*Y124420D01*
X68200Y203120D02*X221700D01*
X68200D02*Y124420D01*
X240400Y225820D02*Y29020D01*
X437200D01*
Y225820D01*
X240400D01*
X458200Y124420D02*X611700D01*
Y203120D02*Y124420D01*
X458200Y203120D02*X611700D01*
X458200D02*Y124420D01*
X1410400Y225820D02*Y29020D01*
X1607200D01*
Y225820D01*
X1410400D01*
M02*
