M48
INCH
T56C0.200
T55C0.240
T54C0.122
%
T54
X026000Y020622
X041750Y004872
X041750Y020622
X047000Y013622
X008000Y013622
X020990Y019132
X026000Y004872
X059990Y019132
X098990Y019132
X137990Y019132
X065000Y020622
X080750Y020622
X104000Y020622
X119750Y020622
X143000Y020622
X158750Y020622
X065000Y004872
X104000Y004872
X119750Y004872
X143000Y004872
X158750Y004872
X080750Y004872
X086000Y013622
X125000Y013622
T56
X013000Y002382
X052000Y002382
X130000Y002382
T55
X166895Y021262
X166895Y002382
X002360Y021262
X002360Y002382
X008000Y002382
M30
